<?xml version="1.0" encoding="UTF-8" standalone="no"?>
<svg
   width="63.999992"
   height="64"
   version="1.1"
   id="svg2"
   sodipodi:docname="Flag_of_FIAV.svg"
   xmlns:inkscape="http://www.inkscape.org/namespaces/inkscape"
   xmlns:sodipodi="http://sodipodi.sourceforge.net/DTD/sodipodi-0.dtd"
   xmlns="http://www.w3.org/2000/svg"
   xmlns:svg="http://www.w3.org/2000/svg">
  <defs
     id="defs2" />
  <sodipodi:namedview
     id="namedview2"
     pagecolor="#ffffff"
     bordercolor="#000000"
     borderopacity="0.25"
     inkscape:showpageshadow="2"
     inkscape:pageopacity="0.0"
     inkscape:pagecheckerboard="0"
     inkscape:deskcolor="#d1d1d1">
    <inkscape:page
       x="0"
       y="0"
       width="63.999992"
       height="64"
       id="page2"
       margin="0"
       bleed="0" />
  </sodipodi:namedview>
  <g
     id="g2"
     transform="translate(-80.413734,-40.759872)">
    <path
       fill="#2c5bae"
       d="M 0,0 H 450 V 300 H 0 Z"
       id="path1"
       style="fill:#2c5bae;fill-opacity:0" />
    <path
       fill="#ffaa24"
       d="m 98.236025,40.759873 c -7.896319,0 -12.364373,17.167309 -12.364373,32 0,14.83269 4.468196,31.999997 12.364516,31.999997 3.792782,0 7.572622,-4.00639 11.306662,-9.403087 -1.42364,-1.57306 -2.75242,-2.80995 -4.10666,-3.48111 -2.54009,3.03076 -4.96839,4.95546 -7.200002,4.95546 -6.43328,0 -9.519929,-13.64417 -9.519929,-24.07126 0,-10.427087 3.086791,-24.07126 9.520071,-24.07126 2.22919,0 4.65465,1.932234 7.19118,4.955463 1.35638,-0.669582 2.69014,-1.919151 4.11563,-3.493403 -3.73291,-5.392336 -7.51573,-9.390404 -11.306668,-9.390404 z m 28.355555,0 c -5.78176,0 -9.98272,4.353275 -13.51993,8.498817 -3.53721,4.145542 -6.37539,7.891475 -9.77778,7.891475 H 93.018319 c -1.046614,2.213705 -1.789867,5.026425 -2.257778,7.928741 h 12.533329 c 4.14166,0 7.42116,-4.457935 10.88,-8.511107 3.45885,-4.053172 7.14027,-7.879186 12.41785,-7.879186 6.43328,0 9.51993,13.644173 9.52007,24.07126 0,1.51558 -0.0732,3.09538 -0.20437,4.6954 h 2.89778 c 0.0961,-1.57623 0.15118,-3.14771 0.15118,-4.6954 0,-14.832691 -4.46819,-32 -12.36437,-32 z M 80.413732,57.150165 v 7.928741 h 4.373334 c 0.236089,-2.700926 0.593777,-5.370136 1.066666,-7.928741 z m 58.160068,0 c 0.48811,2.553848 0.84992,5.22504 1.09341,7.928741 h 4.74652 v -7.928741 z m -6.19548,0.01229 c -5.77963,0.380183 -11.61273,10.663759 -17.42222,20.391928 l -3.21778,5.29005 2.8534,3.35743 0.42667,0.49555 1.39563,-2.34136 c 5.92853,-9.92718 11.6928,-19.276751 16.2934,-19.276751 h 1.74222 c -0.43648,-2.850778 -1.11801,-5.634559 -2.07104,-7.916451 z m -17.36889,1.660278 -0.41771,0.483257 -2.85326,3.357425 3.21778,5.290056 1.48451,2.477731 2.79965,-4.596687 -2.82667,-4.670425 -1.40444,-2.341357 z m 10.44451,16.15481 c -1.04874,1.37484 -2.13247,2.93125 -3.24437,4.62087 3.50635,5.05854 7.01454,8.75888 10.49785,8.75888 h 11.70631 v -7.92874 h -11.70659 c -2.18809,0 -4.64626,-2.15345 -7.25334,-5.45101 z m -45.040208,5.45101 v 7.92874 h 5.44 c -0.472604,-2.5594 -0.831004,-5.22702 -1.066666,-7.92874 z m 10.346667,0 a 7.36,20.515616 0 0 0 2.257777,7.92874 h 10.275554 c 3.40238,0 6.24043,3.74633 9.77778,7.89147 3.53735,4.145147 7.73817,8.511107 13.52007,8.511107 4.5615,0 7.97141,-5.730887 10.04445,-13.429297 h -3.90215 c -1.5205,3.30351 -3.56125,5.50056 -6.14216,5.50056 -5.27744,0 -8.95886,-3.8383 -12.4177,-7.89148 -3.45885,-4.05317 -6.73835,-8.5111 -10.88,-8.5111 z"
       id="path2"
       style="fill:#808080;fill-opacity:1;stroke-width:0.237449"
       inkscape:export-filename="Documenti/prog/rav/frontend/public/flag.svg"
       inkscape:export-xdpi="96"
       inkscape:export-ydpi="96" />
  </g>
</svg>
